<?xml version="1.0" encoding="UTF-8"?><svg id="kolo-fortuny" xmlns="http://www.w3.org/2000/svg" viewBox="0 0 1080 1080"><defs><style>.cls-1{fill:#8e44ad;}.cls-2{fill:#341f97;}.cls-3{fill:#2980b9;}.cls-4{fill:#16a085;}.cls-5{fill:#f39c12;}.cls-6{fill:#eb2f06;}.cls-7{fill:#eab543;}.cls-8{fill:#1b9cfc;}.cls-9{fill:#d35400;}.cls-10{fill:#e58e26;}.cls-11{fill:#78e08f;}.cls-12{fill:#6d214f;}.cls-13{fill:#27ae60;}.cls-14{fill:#c0392b;}.cls-15{fill:#ff6348;}.cls-16{fill:#f368e0;}.cls-17{fill:#f97f51;}</style></defs><g><path class="cls-14" d="M367.58,63.35c27.38-9.98,55.94-17.63,84.87-22.73,28.61-5.04,57.72-7.62,86.54-7.66v501.38S367.58,63.35,367.58,63.35Z"/><path d="M538,33.95v494.7S368.86,63.95,368.86,63.95c27.04-9.8,55.21-17.31,83.77-22.35,28.22-4.98,56.94-7.55,85.37-7.65m1.69-2c-28.82,0-58.04,2.5-87.41,7.68-29.81,5.26-58.53,13.05-85.98,23.12l173.7,477.25V31.95c-.11,0-.21,0-.31,0h0Z"/></g><g><path class="cls-2" d="M214.95,151.07c22.32-18.75,46.53-35.7,71.98-50.39,25.16-14.53,51.64-26.91,78.71-36.8l171.48,471.14L214.95,151.07Z"/><path d="M365.04,65.16l169.2,464.87L216.36,151.19c22.06-18.46,45.96-35.15,71.07-49.65,24.82-14.33,50.92-26.57,77.61-36.38m1.19-2.57c-27.18,9.88-53.88,22.25-79.8,37.22-26.21,15.14-50.54,32.28-72.89,51.13l326.45,389.06L366.24,62.59h0Z"/></g><g><path class="cls-17" d="M101.53,285.69c14.56-25.25,31.52-49.46,50.4-71.97,18.67-22.25,39.32-42.94,61.37-61.5l322.28,384.08L101.53,285.69Z"/><path d="M213.19,153.63l317.99,378.96L102.9,285.33c14.42-24.89,31.17-48.75,49.8-70.96,18.42-21.95,38.76-42.38,60.48-60.73m.24-2.82c-22.17,18.58-43.02,39.34-62.26,62.27-19.46,23.19-36.45,47.62-51,72.98l439.83,253.94L213.43,150.81h0Z"/></g><g><path class="cls-12" d="M41,451c5.05-28.71,12.7-57.26,22.75-84.87,9.94-27.3,22.26-53.8,36.64-78.78l434.21,250.69L41,451Z"/><path d="M100.75,288.71l428.43,247.35L42.16,450.18c5.04-28.32,12.61-56.47,22.53-83.72,9.8-26.93,21.93-53.08,36.06-77.76m-.73-2.73c-14.48,25.04-26.97,51.68-37.21,79.81-10.35,28.44-17.96,57.22-22.97,86.02l500.16,88.19L100.02,285.98h0Z"/></g><g><path class="cls-11" d="M40.65,627.03c-5.08-28.71-7.65-58.15-7.65-87.53s2.52-58.17,7.48-86.56l493.76,87.06L40.65,627.03Z"/><path d="M41.3,454.1l487.19,85.9L41.46,625.87c-4.95-28.34-7.46-57.38-7.46-86.37s2.45-57.38,7.3-85.4m-1.63-2.32c-5.04,28.48-7.67,57.79-7.67,87.72s2.69,59.91,7.84,88.69l500.16-88.19L39.67,451.78h0Z"/></g><g><path class="cls-8" d="M100.53,792.57c-14.59-25.24-27.08-52.02-37.13-79.64-9.94-27.31-17.53-55.53-22.57-83.9l493.76-87.07L100.53,792.57Z"/><path d="M529.18,543.94L100.9,791.2c-14.34-24.93-26.64-51.37-36.55-78.61-9.8-26.93-17.32-54.76-22.35-82.75l487.19-85.91m10.82-3.94L39.67,628.22c5,28.49,12.56,56.93,22.79,85.05,10.35,28.44,23.02,55.38,37.7,80.66l439.83-253.94h0Z"/></g><g><path class="cls-7" d="M213.42,927.65c-22.34-18.72-43.23-39.62-62.12-62.14-18.67-22.26-35.46-46.18-49.91-71.12l434.2-250.69L213.42,927.65Z"/><path d="M531.18,547.4L213.3,926.24c-22.01-18.52-42.6-39.16-61.24-61.37-18.42-21.95-35-45.53-49.31-70.11l428.42-247.35m8.82-7.4L100.02,794.03c14.45,25.06,31.27,49.2,50.51,72.13,19.46,23.19,40.57,44.16,63.01,62.9l326.46-389.05h0Z"/></g><g><path class="cls-6" d="M365.7,1015.97c-27.4-9.96-54.18-22.45-79.63-37.14-25.16-14.52-49.12-31.26-71.22-49.76l322.28-384.08-171.42,470.98Z"/><path d="M534.24,549.97l-169.14,464.71c-27.02-9.88-53.43-22.23-78.53-36.72-24.82-14.33-48.47-30.82-70.31-49.02l317.99-378.97m5.76-9.97L213.43,929.19c22.14,18.6,46.21,35.54,72.13,50.5,26.21,15.14,53.23,27.63,80.73,37.56l173.71-477.25h0Z"/></g><g><path class="cls-10" d="M538.75,1046.88c-29.07,0-58.43-2.58-87.28-7.67-28.61-5.05-56.85-12.58-83.95-22.4l171.48-471.14v501.21s-.25,0-.25,0Z"/><path d="M538,551.34v494.53c-28.76-.04-57.81-2.62-86.36-7.65-28.22-4.98-56.08-12.38-82.84-22.01l169.2-464.87m2-11.34l-173.76,477.41c27.17,9.91,55.58,17.59,85.06,22.79,29.38,5.18,58.61,7.68,87.44,7.68,.42,0,.84,0,1.26,0v-507.88h0Z"/></g><g><path class="cls-15" d="M541,545.67l171.42,470.98c-27.39,9.99-55.94,17.63-84.87,22.73-28.61,5.04-57.73,7.62-86.54,7.66v-501.38Z"/><path d="M542,551.34l169.14,464.71c-27.04,9.8-55.21,17.31-83.77,22.35-28.22,4.98-56.94,7.55-85.37,7.65v-494.7m-2-11.34v508.05c.11,0,.21,0,.31,0,28.82,0,58.04-2.5,87.41-7.68,29.81-5.26,58.53-13.05,85.98-23.12l-173.7-477.25h0Z"/></g><g><path class="cls-16" d="M542.88,544.99l322.17,383.95c-22.32,18.75-46.53,35.7-71.98,50.39-25.16,14.53-51.63,26.91-78.71,36.8l-171.48-471.14Z"/><path d="M545.76,549.97l317.88,378.84c-22.06,18.46-45.96,35.15-71.07,49.65-24.82,14.33-50.92,26.57-77.61,36.38l-169.2-464.87m-5.76-9.97l173.76,477.41c27.18-9.88,53.88-22.25,79.8-37.22,26.21-15.14,50.54-32.28,72.89-51.13l-326.45-389.06h0Z"/></g><g><path class="cls-4" d="M544.41,543.7l434.06,250.6c-14.56,25.25-31.52,49.46-50.4,71.97-18.67,22.26-39.32,42.94-61.37,61.5l-322.28-384.08Z"/><path d="M548.82,547.4l428.28,247.27c-14.42,24.89-31.17,48.75-49.8,70.96-18.42,21.95-38.76,42.38-60.48,60.73l-317.99-378.96m-8.82-7.4l326.57,389.19c22.17-18.58,43.02-39.34,62.26-62.27,19.46-23.19,36.45-47.62,51-72.98l-439.83-253.94h0Z"/></g><g><path class="cls-3" d="M545.41,541.97l493.59,87.04c-5.05,28.71-12.7,57.26-22.75,84.87-9.94,27.3-22.26,53.8-36.64,78.78l-434.21-250.69Z"/><path d="M550.82,543.94l487.02,85.88c-5.04,28.32-12.61,56.47-22.53,83.72-9.8,26.93-21.93,53.08-36.06,77.76l-428.43-247.35m-10.82-3.94l439.98,254.02c14.48-25.04,26.97-51.68,37.21-79.81,10.35-28.44,17.96-57.22,22.97-86.02l-500.16-88.19h0Z"/></g><g><path class="cls-5" d="M545.76,540l493.59-87.03c5.08,28.71,7.65,58.15,7.65,87.53s-2.52,58.17-7.48,86.56l-493.76-87.06Z"/><path d="M1038.54,454.13c4.95,28.34,7.46,57.38,7.46,86.37s-2.45,57.38-7.3,85.4l-487.19-85.9,487.02-85.87m1.62-2.32l-500.16,88.19,500.33,88.22c5.04-28.48,7.67-57.79,7.67-87.72s-2.69-59.91-7.84-88.69h0Z"/></g><g><path d="M979.47,287.43c14.59,25.24,27.08,52.02,37.13,79.64,9.94,27.31,17.53,55.53,22.57,83.9l-493.76,87.06,434.06-250.6Z"/><path d="M979.1,288.8c14.34,24.93,26.64,51.37,36.55,78.61,9.8,26.93,17.32,54.76,22.35,82.75l-487.19,85.91,428.28-247.27m.73-2.73l-439.83,253.94,500.33-88.22c-5-28.49-12.56-56.93-22.79-85.05-10.35-28.44-23.02-55.38-37.7-80.66h0Z"/></g><g><path class="cls-1" d="M866.58,152.35c22.34,18.72,43.24,39.62,62.12,62.14,18.67,22.26,35.46,46.18,49.91,71.12l-434.2,250.69L866.58,152.35Z"/><path d="M866.7,153.76c22.01,18.52,42.6,39.16,61.24,61.37,18.42,21.95,35,45.53,49.31,70.11l-428.42,247.35L866.7,153.76m-.25-2.82l-326.46,389.05,439.98-254.03c-14.45-25.06-31.27-49.2-50.51-72.13-19.46-23.19-40.57-44.16-63.01-62.9h0Z"/></g><g><path class="cls-13" d="M714.3,64.03c27.4,9.96,54.18,22.45,79.63,37.14,25.16,14.53,49.12,31.26,71.22,49.76l-322.28,384.08L714.3,64.03Z"/><path d="M714.9,65.32c27.02,9.88,53.43,22.23,78.53,36.73,24.82,14.33,48.47,30.82,70.31,49.02l-317.99,378.97L714.9,65.32m-1.2-2.56l-173.71,477.25L866.57,150.81c-22.14-18.6-46.21-35.54-72.13-50.5-26.21-15.14-53.23-27.63-80.73-37.56h0Z"/></g><g><path class="cls-9" d="M541,33.12h.26c29.05,0,58.42,2.58,87.27,7.67,28.61,5.04,56.85,12.58,83.95,22.4l-171.48,471.14V33.12Z"/><path d="M542,34.12c28.76,.04,57.81,2.62,86.36,7.65,28.22,4.98,56.08,12.38,82.84,22.01l-169.2,464.87V34.12m-.73-2c-.42,0-.84,0-1.26,0v507.88S713.76,62.59,713.76,62.59c-27.17-9.91-55.58-17.59-85.06-22.79-29.38-5.18-58.61-7.68-87.44-7.68h0Z"/></g></svg>